<svg width="24" height="24" viewBox="0 0 24 24" fill="none" xmlns="http://www.w3.org/2000/svg">
<g clip-path="url(#clip0_4_1760)">
<path d="M11.9968 1.88C10.1665 1.88074 8.37056 2.37787 6.80036 3.31847C5.23017 4.25907 3.94447 5.60791 3.08017 7.22137C2.21588 8.83483 1.80535 10.6525 1.89231 12.4808C1.97927 14.3091 2.56045 16.0796 3.57397 17.6037L1.87683 22.12L7.56069 21.0939C9.12215 21.8567 10.8537 22.2046 12.5887 22.104C14.3236 22.0034 16.0034 21.4577 17.4662 20.5196C18.9291 19.5814 20.1257 18.2823 20.9408 16.7475C21.7559 15.2126 22.162 13.4938 22.12 11.7564" stroke="#0A3762" stroke-width="2" stroke-linecap="round" stroke-linejoin="round"/>
<path d="M18.2857 9.64291C19.3276 9.64291 20.3269 9.22901 21.0636 8.49226C21.8004 7.75551 22.2143 6.75626 22.2143 5.71434C22.2143 4.67242 21.8004 3.67317 21.0636 2.93642C20.3269 2.19967 19.3276 1.78577 18.2857 1.78577C17.2438 1.78577 16.2445 2.19967 15.5078 2.93642C14.771 3.67317 14.3571 4.67242 14.3571 5.71434C14.3571 6.75626 14.771 7.75551 15.5078 8.49226C16.2445 9.22901 17.2438 9.64291 18.2857 9.64291Z" fill="#2DD4BF"/>
<path d="M18.2857 9.64291C19.3276 9.64291 20.3269 9.22901 21.0636 8.49226C21.8004 7.75551 22.2143 6.75626 22.2143 5.71434C22.2143 4.67242 21.8004 3.67317 21.0636 2.93642C20.3269 2.19967 19.3276 1.78577 18.2857 1.78577C17.2438 1.78577 16.2445 2.19967 15.5078 2.93642C14.771 3.67317 14.3571 4.67242 14.3571 5.71434C14.3571 6.75626 14.771 7.75551 15.5078 8.49226C16.2445 9.22901 17.2438 9.64291 18.2857 9.64291Z" stroke="#0A3762" stroke-width="2" stroke-linecap="round" stroke-linejoin="round"/>
</g>
<defs>
<clipPath id="clip0_4_1760">
<rect width="24" height="24" fill="white"/>
</clipPath>
</defs>
</svg>
